<svg xmlns="http://www.w3.org/2000/svg" viewBox="0 0 511.01 369.86"><defs><style>.cls-1{fill:#895b44;}.cls-2{fill:#456a58;}</style></defs><g id="Layer_2" data-name="Layer 2"><g id="Layer_3" data-name="Layer 3"><path class="cls-1" d="M511,147.78v11c-13.44,1.66-18.94,7.31-24.44,26.27L430.66,367.44h-26L357.94,218.29,311.81,367.44h-26L229.62,185c-4.89-16.86-8.55-25.22-19.29-25.55-13-.4-15.89,6.89-15.89,23.86V369.86h-4.51a38.9,38.9,0,0,1-32.67-17.8L48.53,183.66V334.33c0,21.26,5.07,23.16,27.91,24.74v10.79H0V359.07c22.83-1.58,28.23-3.48,28.23-24.74v-151c0-21.25-5.4-23.47-28.23-25.05V147.82H77.71L174.14,296.9V183.34c0-21.25-4.76-23.47-27.6-25.05V147.82l147.85,0v11c-22,1.66-26,7.31-20.77,26.27l37,127.71S336.78,214,345.5,181.56c5-18.65,37.92-25.1,47,3.47,10,31.67,37.27,127.71,37.27,127.71l37-127.71c5.5-19,1.22-24.61-20.17-26.27v-11Z"/><path class="cls-1" d="M425.37,136.44h-1.88a4.44,4.44,0,0,1-4.41-4.05,45.79,45.79,0,0,0-91.22,0,4.43,4.43,0,0,1-4.41,4.05h-1.88a4.44,4.44,0,0,1-4.42-4.8,56.52,56.52,0,0,1,112.64,0A4.44,4.44,0,0,1,425.37,136.44Z"/><path class="cls-2" d="M383.71,0s-43,31.2-13.49,64.75c2.93,3.33,8.63,3,11.77-.73C404.1,38,398.74,19.41,383.71,0Z"/><path class="cls-2" d="M459.7,37.86s-45.09-8.18-46.92,34.63a8.71,8.71,0,0,0,10.61,8.83C450.65,75.22,448.45,59.92,459.7,37.86Z"/><path class="cls-2" d="M492.58,84.85s-38.42-17.67-53.95,18.67a8.79,8.79,0,0,0,5.29,11.92C467.36,122.81,483.35,104.76,492.58,84.85Z"/><path class="cls-2" d="M305.54,19.84S286,66.92,326.09,81.1c5.25,1.85,11.16-2.44,11.63-8.45C340.05,42.88,318.35,38.09,305.54,19.84Z"/><path class="cls-2" d="M253.53,83.91s18.5,45.91,50,29.78a9.39,9.39,0,0,0,3.51-13.59C292,77.72,274.56,77.3,253.53,83.91Z"/></g></g></svg>