<svg xmlns="http://www.w3.org/2000/svg" viewBox="0 0 511.01 407.75"><defs><style>.cls-1{fill:#231f20;}.cls-2{fill:#754c29;}</style></defs><g id="Layer_2" data-name="Layer 2"><g id="Layer_3" data-name="Layer 3"><path class="cls-1" d="M511,185.67v11c-13.44,1.66-18.94,7.31-24.44,26.27L430.66,405.33h-26L357.94,256.18,311.81,405.33h-26L229.62,222.92c-4.89-16.86-8.55-25.22-19.29-25.55-13-.41-15.89,6.89-15.89,23.86V407.75h-4.51A38.9,38.9,0,0,1,157.26,390L48.53,221.55V372.22c0,21.26,5.07,23.16,27.91,24.74v10.79H0V397c22.83-1.58,28.23-3.48,28.23-24.74v-151c0-21.25-5.4-23.47-28.23-25V185.71H77.71l96.43,149.08V221.23c0-21.25-4.76-23.47-27.6-25V185.71l147.85,0v11c-22,1.66-26,7.31-20.77,26.27l37,127.71s26.19-98.78,34.91-131.18c5-18.65,37.92-25.1,47,3.47,10,31.67,37.27,127.71,37.27,127.71l37-127.71c5.5-19,1.22-24.61-20.17-26.27v-11Z"/><path class="cls-1" d="M323.45,156.33h-2.16a5.09,5.09,0,0,1-5.05-4.64,52.47,52.47,0,0,0-104.52,0,5.07,5.07,0,0,1-5.05,4.64h-2.15a5.08,5.08,0,0,1-5.07-5.5,64.76,64.76,0,0,1,129.06,0A5.08,5.08,0,0,1,323.45,156.33Z"/><path class="cls-2" d="M275.71,0s-49.27,35.74-15.45,74.19c3.36,3.82,9.88,3.41,13.49-.83C299.08,43.55,292.94,22.24,275.71,0Z"/><path class="cls-2" d="M362.78,43.38S311.12,34,309,83.05a10,10,0,0,0,12.15,10.12C352.41,86.19,349.89,68.66,362.78,43.38Z"/><path class="cls-2" d="M400.46,97.21s-44-20.24-61.82,21.4a10.07,10.07,0,0,0,6.06,13.66C371.55,140.71,389.88,120,400.46,97.21Z"/><path class="cls-2" d="M186.15,22.73s-22.39,54,23.55,70.19c6,2.12,12.78-2.79,13.32-9.68C225.69,49.13,200.83,43.65,186.15,22.73Z"/><path class="cls-2" d="M126.55,96.14s21.2,52.6,57.33,34.12a10.74,10.74,0,0,0,4-15.56C170.6,89.05,150.65,88.57,126.55,96.14Z"/></g></g></svg>