<svg xmlns="http://www.w3.org/2000/svg" viewBox="0 0 122.88 92.81"><defs><style>.cls-1{fill:#fff;fill-rule:evenodd;}</style></defs><g id="Layer_2" data-name="Layer 2"><g id="Layer_1-2" data-name="Layer 1"><path class="cls-1" d="M107,92.81H84.89A15.49,15.49,0,0,1,69.44,77.36c0-31.79-8.12-66.71,30.84-76.68,17.65-4.51,22.25,14.93,3.48,16.27-11.45.82-13.69,8.22-14,19.4h17.71A15.49,15.49,0,0,1,122.88,51.8V76.89A16,16,0,0,1,107,92.81Zm-68.74,0H16.15A15.49,15.49,0,0,1,.7,77.36C.7,45.57-7.42,10.65,31.54.68,49.2-3.84,53.8,15.6,35,17c-11.45.82-13.69,8.22-14,19.4H38.7A15.49,15.49,0,0,1,54.15,51.8V76.89A16,16,0,0,1,38.23,92.81Z"/></g></g></svg>